<svg data-noselect="" viewBox="0 0 800 600" width="1600" height="1200" preserveAspectRatio="none" version="1.1" xmlns="http://www.w3.org/2000/svg" style="background: rgb(255, 255, 255);"><defs><filter id="filter_shadow_shape_lyV6Tq7Rbz" width="1000%" height="1000%"><feGaussianBlur in="SourceAlpha" stdDeviation="1"></feGaussianBlur> <feOffset dx="1" dy="1" result="offsetblur"></feOffset><feComponentTransfer><feFuncA type="linear" slope="0.4"></feFuncA></feComponentTransfer><feMerge><feMergeNode></feMergeNode><feMergeNode in="SourceGraphic"></feMergeNode></feMerge></filter></defs> <g id="shape_lyV6Tq7Rbz" transform="translate(309.00746154785,135.50296020508) rotate(0,100,100) scale(1,1)" filter="url(#filter_shadow_shape_lyV6Tq7Rbz)" style="cursor: move; opacity: 1;"><g><rect fill="rgba(0,0,0,0)" width="220" height="220" x="-10" y="-10"></rect><svg version="1.1" xmlns="http://www.w3.org/2000/svg" xmlns:xlink="http://www.w3.org/1999/xlink" x="0px" y="0px" shapetype="round rect" width="200" height="200" viewBox="0 0 100 100" enable-background="new 0 0 100 100" xml:space="preserve" preserveAspectRatio="none" data-parent="shape_lyV6Tq7Rbz">
	 <linearGradient class="" x1="0%" y1="0%" x2="0%" y2="100%" gradientTransform="translate(0.5,0.5) rotate(0) translate(-0.5,-0.5)">
		<stop id="stop1_ow3cwzdvpZ" offset="0%" class="" stop-color="#05a"></stop>
		<stop id="stop2_ihF6qOUXOs" offset="100%" class="" stop-color="#0a5"></stop>
	</linearGradient>

	<radialGradient class="" cx="50%" cy="50%" r="50%" fx="50%" fy="50%">
		<stop offset="0%" class="" stop-color="#05a"></stop>
		<stop offset="100%" class="" stop-color="#0a5"></stop>
	</radialGradient>
	<clipPath id="f_round_rect_cmuU99ijP7" class="">
		<rect fill="none" class="" stroke="#dddddd" stroke-width="1" stroke-miterlimit="10" x="0" y="0" width="100" height="100" rx="20" ry="20"></rect>
	</clipPath>
	<rect class="" fill="#E5E5E5" opacity="1" x="1" y="1" width="98" height="98" rx="20" ry="20"></rect>
	<rect class="" fill="none" stroke="#dddddd" stroke-width="0" stroke-miterlimit="10" x="0" y="0" width="100" height="100" rx="20" ry="20" clip-path="url(#f_round_rect_cmuU99ijP7)"></rect>
</svg></g> <!----></g><g id="shape_WtPh2wzs36" transform="translate(358.20253442476866,160.00296020508) rotate(0,75.5,75.5) scale(1,1)" filter="" style="cursor: move; opacity: 1;"><g><rect fill="rgba(0,0,0,0)" width="121.6098542461627" height="171" x="-10" y="-10"></rect><svg version="1.1" id="图层_1" xmlns="http://www.w3.org/2000/svg" xmlns:xlink="http://www.w3.org/1999/xlink" x="0px" y="0px" style="enable-background:new 0 0 283.465 283.465;" xml:space="preserve" viewBox="63.390995025634766 19 166.23101806640625 247.031982421875" width="101.6098542461627" height="151" preserveAspectRatio="none" data-parent="shape_WtPh2wzs36">
<g>
	<g>
		<g>
			<linearGradient id="SVGID_1_" gradientUnits="userSpaceOnUse" x1="295.9842" y1="32.5608" x2="165.6687" y2="331.2341">
				<stop offset="0" style="" stop-color="#F8B6AF"></stop>
				<stop offset="0.3226" style="" stop-color="#EE5B9B"></stop>
				<stop offset="0.6989" style="" stop-color="#BB1B8A"></stop>
				<stop offset="1" style="" stop-color="#80256F"></stop>
			</linearGradient>
			<path style="" d="M217.577,220.278c-2.572-0.872-5.302-1.329-7.996-1.355
				c-2.688,0.007-5.317,0.447-7.729,1.246c-4.801,1.64-8.572,4.74-10.801,8.296c-2.189,3.563-3.012,7.55-2.254,11.364
				c1.34-3.379,3.348-6.456,6-9.054c2.65-2.592,5.978-4.643,9.765-5.833c1.897-0.589,3.909-0.944,5.981-1.08
				c2.078-0.114,4.214,0.04,6.371,0.411c4.311,0.806,8.602,2.674,12.708,5.425C227.102,225.536,222.706,222.078,217.577,220.278z" fill="url(#SVGID_1_)"></path>
			<linearGradient id="SVGID_2_" gradientUnits="userSpaceOnUse" x1="213.4583" y1="32.2456" x2="40.7874" y2="302.5834">
				<stop offset="0" style="" stop-color="#F8B6AF"></stop>
				<stop offset="0.3226" style="" stop-color="#EE5B9B"></stop>
				<stop offset="0.6989" style="" stop-color="#BB1B8A"></stop>
				<stop offset="1" style="" stop-color="#80256F"></stop>
			</linearGradient>
			<path style="" d="M187.198,133.657c-4.468-2.728-8.203-4.038-9.719-4.517
				c-0.489-0.156-0.753-0.215-0.753-0.215c0.567,0.039,1.193-0.01,1.848-0.147c0.675-0.137,1.388-0.372,2.112-0.675
				c0.645-0.264,1.291-0.567,1.956-0.919c0.02-0.01,0.039-0.02,0.068-0.029c1.946-1.046,3.97-2.415,5.779-3.774
				c2.004-1.496,3.774-2.963,4.918-3.931c1.359-1.115,2.63-2.298,3.843-3.549c3.148-3.246,5.808-6.874,7.988-10.785
				c0.01-0.02,0.02-0.049,0.029-0.068c0.362-0.636,0.694-1.281,1.027-1.936c1.076-2.141,2.014-4.361,2.806-6.629
				c0.489-1.359,0.909-2.738,1.281-4.136c3.784-14.129,2.21-29.724-5.192-42.299c-0.587-1.036-1.232-2.053-1.916-3.041
				c-2.591-3.764-5.749-7.187-9.494-10.159c-0.469-0.381-0.958-0.753-1.447-1.105c0,0,0-0.01-0.01-0.01
				c-9.074-6.756-19.908-10.834-31.035-13.298c-5.788-1.281-11.655-2.122-17.404-2.679c-5.476-0.508-10.971-0.753-16.466-0.753
				h-0.636c-2.317,0.01-4.517,0.039-6.659,0.088c-9.005,0.244-16.368,0.919-22.381,1.838c-11.342,2.18-18.49,5.798-22.411,8.36
				c-2.014,1.32-3.373,3.452-3.706,5.808c-0.059,0.391-0.088,0.782-0.088,1.183v161.91c5.368-3.236,9.944-4.752,10.971-5.075
				c-1.555,0.577-3.452,3.002-4.478,4.136c-1.281,1.408-2.484,2.924-3.588,4.517c-1.036,1.486-1.995,3.031-2.875,4.644
				c-0.88,1.574-1.682,3.197-2.405,4.869c-3.852,8.79-5.769,18.715-5.769,27.691c0,3.285,0.274,6.776,1.32,9.905l0.01,0.039
				l1.506,3.95l0.02,0.029c5.29,11.147,16.143,13.132,16.143,13.132c-10.511-6.492-13.65-15.244-12.613-24.562
				c0.411-3.686,1.467-7.47,2.982-11.235c2.083-4.449,4.547-9.132,7.47-13.865c1.3-1.975,2.669-3.911,4.068-5.779
				c0.841-1.134,1.692-2.239,2.552-3.315c1.124-1.418,2.249-2.787,3.364-4.097c1.105-1.31,2.21-2.562,3.285-3.764
				c4.693-5.221,8.868-9.25,11.127-11.352c0.626-0.518,1.222-1.046,1.868-1.564c-2.288-2.317-5.045-3.608-8.086-4.116
				c-1.3-0.215-2.601-0.323-3.862-0.313c-0.587,0-1.164,0.029-1.721,0.049c-0.078,0-0.254,0-0.469-0.01c-0.196,0-0.42,0-0.587,0.029
				h-0.039l-0.215,0.068c1.564-2.229,4.977-5.084,8.917-6.913c0.303-0.156,0.645-0.303,0.968-0.43
				c0.733-0.303,1.486-0.577,2.239-0.782c3.256-0.939,6.629-0.978,9.465,0.684c0.254,0.147,0.499,0.313,0.733,0.489
				c0.606,0.43,1.164,0.939,1.701,1.564c0.9-1.457,1.799-2.816,2.699-4.107c2.161-3.09,4.42-5.759,6.766-8.037
				c5.094-4.948,10.609-8.057,16.495-9.514c0.225-0.049,0.46-0.108,0.684-0.156c0.108-0.029,0.225-0.049,0.332-0.068
				c1.828-0.401,3.696-0.645,5.583-0.733c0.293-0.02,0.596-0.02,0.89-0.029h0.264c0.303-0.01,0.616-0.01,0.929-0.01
				c1.398,0.01,2.806,0.088,4.234,0.264c2.689,0.303,5.436,0.87,8.243,1.701c0.205,0.059,0.401,0.108,0.616,0.176
				c0.636,0.186,1.271,0.401,1.916,0.626c0.02,0,0.049,0.01,0.068,0.02c0.01,0.01,0.02,0.01,0.02,0.01v0.117c0,0,0,0,0,0.01
				c0.127,4.556-0.235,8.78-1.173,12.662c-0.078,0.401-0.176,0.792-0.284,1.183c-0.264,0.978-0.557,1.926-0.9,2.865
				c-0.342,0.978-0.743,1.936-1.193,2.875c-0.068,0.147-0.137,0.293-0.205,0.44c-3.481,7.148-9.494,12.838-18.597,16.994
				c-2.083,0.948-4.332,1.828-6.747,2.62c-1.574,0.518-3.227,0.997-4.948,1.447c0.127,0.205,0.254,0.42,0.362,0.645
				c0.098,0.166,0.166,0.323,0.254,0.499c0.059,0.147,0.117,0.284,0.156,0.42c0.098,0.196,0.166,0.411,0.235,0.596
				c0.068,0.215,0.137,0.43,0.176,0.636c0.059,0.215,0.098,0.42,0.137,0.626c0.02,0.068,0.02,0.108,0.039,0.166
				c0.029,0.254,0.049,0.508,0.068,0.753c0.029,0.244,0.029,0.479,0.029,0.724c0,0.078,0,0.166-0.01,0.244
				c0,0.196-0.01,0.381-0.029,0.577c0,0.117-0.02,0.244-0.029,0.381c-0.01,0.176-0.049,0.352-0.088,0.548
				c-0.01,0.049-0.01,0.108-0.02,0.147c-0.01,0.068-0.02,0.117-0.039,0.156c-0.049,0.225-0.088,0.44-0.156,0.636
				c-0.02,0.127-0.059,0.264-0.098,0.381c-0.01,0.039-0.01,0.078-0.02,0.108c-0.176,0.508-0.362,1.017-0.577,1.506
				c-0.078,0.176-0.147,0.332-0.244,0.499c-0.078,0.186-0.176,0.362-0.264,0.528c0,0.01,0,0.02-0.01,0.029
				c-0.039,0.108-0.098,0.186-0.156,0.264c-0.039,0.088-0.088,0.176-0.127,0.244c-0.108,0.176-0.186,0.323-0.293,0.469
				c-0.068,0.127-0.147,0.244-0.235,0.372c-0.088,0.137-0.186,0.284-0.284,0.43c-0.147,0.215-0.313,0.43-0.479,0.636
				c-0.029,0.049-0.068,0.108-0.117,0.156c-0.196,0.264-0.401,0.518-0.606,0.763c-0.039,0.049-0.068,0.098-0.098,0.127
				c-0.068,0.059-0.137,0.147-0.196,0.225c-0.059,0.068-0.147,0.156-0.205,0.225l-0.147,0.147c-0.362,0.411-0.743,0.802-1.144,1.173
				c-2.708,2.64-5.857,4.566-8.125,5.28c0.851-2.092,2.21-5.671,2.073-9.533c-0.02-0.743-0.108-1.496-0.264-2.259
				c-0.274-1.428-0.802-2.875-1.672-4.263c0,0-3.53,1.418-8.81,4.136c-1.369,0.704-2.855,1.506-4.439,2.386
				c-1.222,0.675-2.484,1.418-3.784,2.19c-3.598,2.288-7.421,5.075-11.127,8.35c-1.437,1.271-2.845,2.591-4.224,4.009
				c-2.034,2.102-3.989,4.38-5.788,6.805c-1.819,2.454-3.461,5.075-4.889,7.861c0,0,0.049,0.01,0.166,0.029
				c0.469,0.088,1.877,0.401,3.52,1.222c1.995,1.007,4.332,2.787,5.642,5.876c0.225-0.098,0.46-0.205,0.675-0.313
				c3.618-1.555,7.656-2.748,12.075-3.285c2.699-0.332,5.544-0.44,8.516-0.254c3.999,0.264,8.233,1.066,12.643,2.552
				c0.988,0.323,1.985,0.704,3.012,1.095c-2.122,2.063-3.491,4.253-4.341,5.935c-0.89,1.74-1.203,2.953-1.203,2.953
				c-11.88-3.481-25.911,0.235-25.911,0.235c19.282,0,29.93,7.001,29.93,7.001c0.714-3.129,1.711-5.818,2.894-8.135
				c6.434-12.711,18.304-14.148,18.304-14.148c-9.396-0.714-15.439,2.268-19.243,5.779c0.137-0.948,0.323-1.877,0.567-2.767
				c0.371-1.33,0.831-2.591,1.418-3.774c0.939-1.975,2.141-3.735,3.53-5.251c4.097-4.439,9.915-6.844,16.104-6.659
				c0.626,0.01,1.261,0.059,1.887,0.127c2.356,0.264,4.772,0.9,7.138,1.946c0.039,0.02,0.059,0.029,0.059,0.029
				c-0.391,0.851-0.714,1.721-0.988,2.611c-0.753,2.444-1.076,4.967-1.173,7.196c-0.098,1.975-0.029,3.725,0.068,4.967
				c-1.3,0.714-2.542,1.535-3.716,2.425c-0.802,0.596-1.564,1.232-2.298,1.897c-3.041,2.816-5.642,6.131-7.118,9.964
				c0.225-0.225,4.419-4.244,11.303-7.812c6.404-3.334,15.156-6.277,25.207-5.407c3.266,0.274,6.668,0.968,10.179,2.171
				c-1.154,0.332-2.249,0.743-3.266,1.203c-0.01,0-0.01,0-0.01,0c-1.701,0.772-3.197,1.701-4.42,2.738
				c-2.65,2.259-4.175,4.967-4.243,7.695c1.877-2.22,4.273-4.165,7.148-5.72c1.946-1.046,4.126-1.897,6.453-2.474
				c1.115-0.284,2.268-0.508,3.452-0.655c1.819-0.225,3.686-0.274,5.573-0.166c1.887,0.117,3.774,0.44,5.632,0.909
				c3.716,0.978,7.196,2.689,10.355,5.016c-1.467-3.148-4.732-5.994-8.976-7.744c-2.132-0.86-4.508-1.437-6.913-1.721
				c-2.415-0.254-4.85-0.205-7.187,0.127c-1.115,0.156-2.22,0.401-3.276,0.684c-1.525-0.978-3.53-2.122-5.916-3.168
				c-3.5-1.535-7.812-2.875-12.633-3.207c-3.168-0.186-6.561,0.039-10.091,0.929c-0.039,0.02-0.068,0.029-0.117,0.039
				c-1.525,0.518-3.002,1.164-4.42,1.907c0,0,0.01-0.029,0.02-0.088c0.372-1.516,0.841-3.031,1.467-4.508
				c0.645-1.516,1.418-3.021,2.308-4.488c0.059-0.098,0.108-0.196,0.176-0.284c0.303-0.489,0.616-0.968,0.939-1.437
				c1.398-1.985,3.012-3.892,4.84-5.632c9.387-8.996,24.356-14.197,41.907-9.005c0.851,0.244,1.701,0.518,2.572,0.821l0.01-0.01
				c0-0.01,0-0.02,0.01-0.039c0.01-0.059,0.029-0.098,0.039-0.147c1.613-5.358,2.845-10.403,3.755-15.146
				c0.89-4.654,1.476-9.025,1.799-13.132c0.772-10.032-0.049-18.48-1.887-25.598C205.492,147.903,195.167,138.516,187.198,133.657z
				 M155.861,113.701c-3.276,0.724-24.532,0.88-31.817,0.88c-2.18,0-4.263-0.401-6.189-1.154c-0.694-0.264-1.359-0.567-2.004-0.929
				c-0.098-0.049-0.137-0.068-0.137-0.068c-1.77-0.988-3.354-2.268-4.654-3.784c-0.9-1.027-1.672-2.151-2.298-3.364
				c-0.958-1.848-1.584-3.882-1.799-6.043c0-0.02-0.01-0.029-0.01-0.059c-0.039-0.244-0.059-0.499-0.068-0.763
				c-0.02-0.342-0.029-0.684-0.029-1.027V64.616c25.588,0,49.143-2.298,59.253,8.976c0.147,0.147,0.274,0.303,0.411,0.46
				c0.596,0.733,1.164,1.506,1.643,2.337c0.401,0.665,0.753,1.369,1.085,2.092c0.401,0.939,0.753,1.956,1.046,3.031
				c0.01,0.029,0.01,0.039,0.01,0.039c0.645,2.347,0.968,5.016,0.968,8.047c0,0.274,0,0.538-0.02,0.782
				c0.01,0.068,0.01,0.117,0,0.166c0.01,0.254,0.02,0.499,0.02,0.753c-0.02,0.264-0.049,0.528-0.098,0.802
				c-0.205,1.838-0.587,3.716-1.134,5.583c-0.342,1.173-0.733,2.288-1.193,3.373C166.489,106.504,162.001,112.371,155.861,113.701z" fill="url(#SVGID_2_)"></path>
			<linearGradient id="SVGID_3_" gradientUnits="userSpaceOnUse" x1="222.8969" y1="0.6266" x2="92.5534" y2="299.3642">
				<stop offset="0" style="" stop-color="#F8B6AF"></stop>
				<stop offset="0.3226" style="" stop-color="#EE5B9B"></stop>
				<stop offset="0.6989" style="" stop-color="#BB1B8A"></stop>
				<stop offset="1" style="" stop-color="#80256F"></stop>
			</linearGradient>
			<path style="" d="M161.158,159.112l-0.571,4.755c-0.93,7.978-4.755,14.023-9.468,18.525
				c-0.306,0.275-0.655,0.592-1.025,0.94c-0.137,0.137-0.285,0.264-0.433,0.391c-0.624,0.539-1.247,1.046-1.892,1.532
				c-0.063,0.053-0.116,0.095-0.19,0.148c-5.907,4.206-13.241,5.537-18.218,5.939c0,0,0.011,0,0.021-0.011
				C130.164,191.068,151.024,183.808,161.158,159.112z" fill="url(#SVGID_3_)"></path>
		</g>
		<linearGradient id="SVGID_4_" gradientUnits="userSpaceOnUse" x1="151.2895" y1="35.0115" x2="31.2267" y2="107.8586">
			<stop offset="0" style="" stop-color="#87004A"></stop>
			<stop offset="0.4606" style="" stop-color="#EE2651" stop-opacity="0"></stop>
			<stop offset="1" style="" stop-color="#FFC74E" stop-opacity="0"></stop>
		</linearGradient>
		<path style="" d="M166.505,74.035c-9.859-11.783-33.71-9.415-59.653-9.415v30.487l-35.316,2.536V36.278
			c0-0.402,0.032-0.793,0.085-1.184c2.314-0.391,4.724-0.719,7.228-0.972C132.965,28.553,157.819,59.304,166.505,74.035z" fill="url(#SVGID_4_)"></path>
		<linearGradient id="SVGID_5_" gradientUnits="userSpaceOnUse" x1="92.0844" y1="181.8705" x2="91.7082" y2="182.5701">
			<stop offset="0" style="" stop-color="#87004A"></stop>
			<stop offset="0.4606" style="" stop-color="#EE2651" stop-opacity="0"></stop>
			<stop offset="1" style="" stop-color="#FFC74E" stop-opacity="0"></stop>
		</linearGradient>
		<path style="" d="M92.355,182.107l-0.845,0.095C91.615,182.117,92.016,182.107,92.355,182.107z" fill="url(#SVGID_5_)"></path>
		<linearGradient id="SVGID_6_" gradientUnits="userSpaceOnUse" x1="67.9796" y1="83.6971" x2="129.8547" y2="166.2572">
			<stop offset="0" style="" stop-color="#87004A"></stop>
			<stop offset="0.4606" style="" stop-color="#EE2651" stop-opacity="0"></stop>
			<stop offset="1" style="" stop-color="#FFC74E" stop-opacity="0"></stop>
		</linearGradient>
		<path style="" d="M141.715,114.582c0,0-70.178,93.024-70.178,32.864c0-60.17,35.316-82.827,35.316-82.827
			v33.808c0,8.922,7.232,16.154,16.154,16.154H141.715z" fill="url(#SVGID_6_)"></path>
		<linearGradient id="SVGID_7_" gradientUnits="userSpaceOnUse" x1="98.2923" y1="179.519" x2="81.0248" y2="234.0195">
			<stop offset="0" style="" stop-color="#F8B6AF"></stop>
			<stop offset="0.3226" style="" stop-color="#EE5B9B" stop-opacity="0.5"></stop>
			<stop offset="0.6989" style="" stop-color="#BB1B8A" stop-opacity="0.4"></stop>
			<stop offset="1" style="" stop-color="#80256F" stop-opacity="0"></stop>
		</linearGradient>
		<path style="" d="M106.494,186.492c-0.645,0.518-1.247,1.046-1.87,1.564
			c-4.354,4.047-15.756,15.196-24.389,28.31c-2.927,4.734-5.389,9.416-7.471,13.864c-1.522,3.762-2.578,7.545-2.991,11.233
			c-0.359-13.632,21.737-59.262,21.737-59.262l0.222-0.063h0.032c0.169-0.032,0.391-0.032,0.592-0.032
			c0.211,0.011,0.391,0.011,0.465,0.011c0.56-0.021,1.141-0.053,1.722-0.053c1.268-0.011,2.568,0.095,3.868,0.317
			C101.442,182.889,104.201,184.178,106.494,186.492z" opacity="0.7" fill="url(#SVGID_7_)"></path>
		<linearGradient id="SVGID_8_" gradientUnits="userSpaceOnUse" x1="107.4708" y1="197.8532" x2="94.9911" y2="237.242">
			<stop offset="0" style="" stop-color="#F8B6AF"></stop>
			<stop offset="0.3226" style="" stop-color="#EE5B9B" stop-opacity="0.5"></stop>
			<stop offset="0.6989" style="" stop-color="#BB1B8A" stop-opacity="0.4"></stop>
			<stop offset="1" style="" stop-color="#80256F" stop-opacity="0"></stop>
		</linearGradient>
		<path style="" d="M120.96,209.952c0.137,3.868-1.215,7.439-2.071,9.532c0,0-32.442,8.274-42.755,19.719
			c-0.116-0.021-0.169-0.032-0.169-0.032c1.427-2.79,3.075-5.41,4.893-7.862c1.796-2.43,3.751-4.702,5.791-6.805
			c1.374-1.416,2.779-2.737,4.216-4.005c3.709-3.276,7.535-6.066,11.127-8.359c1.3-0.771,2.568-1.511,3.783-2.187
			c7.661-4.269,13.251-6.52,13.251-6.52C120.358,205.566,120.897,207.807,120.96,209.952z" fill="url(#SVGID_8_)"></path>
		<linearGradient id="SVGID_9_" gradientUnits="userSpaceOnUse" x1="195.7946" y1="123.6924" x2="85.7146" y2="-3.2954">
			<stop offset="0" style="" stop-color="#87004A"></stop>
			<stop offset="0.4606" style="" stop-color="#EE2651" stop-opacity="0"></stop>
			<stop offset="1" style="" stop-color="#FFC74E" stop-opacity="0"></stop>
		</linearGradient>
		<path style="" d="M157.439,113.261c0.697-0.285,1.363-0.623,2.008-1.004c2.6-1.532,4.798-3.551,6.562-6.066
			c0.275-0.391,0.539-0.782,0.793-1.194c1.384-2.198,2.462-4.639,3.234-7.313c0.624-2.145,1.036-4.28,1.236-6.383
			c0-0.254-0.011-0.497-0.021-0.75c0.011-0.053,0.011-0.106,0-0.169c0.021-0.243,0.021-0.507,0.021-0.782
			c0-3.033-0.328-5.706-0.972-8.052c0,0,0-0.011-0.011-0.032c-0.793-2.969-2.071-5.421-3.773-7.461
			c-0.011-0.011-0.011-0.011-0.011-0.021c-9.859-11.783-33.71-9.415-59.653-9.415v10.884L71.537,64.313V36.278
			c0-0.402,0.032-0.793,0.085-1.184c0.338-2.357,1.691-4.481,3.709-5.801c3.921-2.568,11.064-6.182,22.413-8.359
			c6.013-0.919,13.378-1.596,22.382-1.839c2.135-0.053,4.343-0.085,6.657-0.095h0.634c5.495,0,10.99,0.243,16.464,0.761
			c16.813,1.617,34.65,5.706,48.441,15.967c0.011,0,0.011,0.011,0.011,0.011C229.349,96.744,159.182,112.87,157.439,113.261z" fill="url(#SVGID_9_)"></path>
		<linearGradient id="SVGID_10_" gradientUnits="userSpaceOnUse" x1="152.8846" y1="149.0636" x2="104.3198" y2="213.0072">
			<stop offset="0" style="" stop-color="#F8B6AF"></stop>
			<stop offset="0.3226" style="" stop-color="#EE5B9B" stop-opacity="0.5"></stop>
			<stop offset="0.6989" style="" stop-color="#BB1B8A" stop-opacity="0.4"></stop>
			<stop offset="1" style="" stop-color="#80256F" stop-opacity="0"></stop>
		</linearGradient>
		<path style="" d="M165.258,156.946c-8.19-2.8-15.914-3.582-23.079-1.944
			c-8.877,1.997-16.908,7.672-23.946,17.711c-0.898,1.289-1.796,2.642-2.695,4.1C130.555,140.915,164.255,156.47,165.258,156.946z" opacity="0.7" fill="url(#SVGID_10_)"></path>
		<linearGradient id="SVGID_11_" gradientUnits="userSpaceOnUse" x1="168.4136" y1="161.2339" x2="111.6839" y2="235.9279">
			<stop offset="0" style="" stop-color="#F8B6AF"></stop>
			<stop offset="0.3226" style="" stop-color="#EE5B9B" stop-opacity="0.5"></stop>
			<stop offset="0.6989" style="" stop-color="#BB1B8A" stop-opacity="0.4"></stop>
			<stop offset="1" style="" stop-color="#80256F" stop-opacity="0"></stop>
		</linearGradient>
		<path style="" d="M131.591,198.814c-0.106-0.222-0.232-0.433-0.359-0.645
			c19.011-4.956,29.071-14.107,32.59-27.243c1.131-4.206,1.596-8.824,1.458-13.843C165.723,159.524,171.356,194.819,131.591,198.814
			z" fill="url(#SVGID_11_)"></path>
		<linearGradient id="SVGID_12_" gradientUnits="userSpaceOnUse" x1="160.7764" y1="117.5079" x2="88.4689" y2="-7.3215">
			<stop offset="0" style="" stop-color="#87004A"></stop>
			<stop offset="0.4606" style="" stop-color="#EE2651" stop-opacity="0"></stop>
			<stop offset="1" style="" stop-color="#FFC74E" stop-opacity="0"></stop>
		</linearGradient>
		<path style="" d="M158.696,112.679c0.254-0.137,0.497-0.275,0.75-0.423c1.997-1.173,3.751-2.642,5.263-4.396
			c0.454-0.528,0.888-1.088,1.3-1.67c0.275-0.391,0.539-0.782,0.793-1.194c0.782-1.236,1.458-2.547,2.039-3.942
			c0.465-1.078,0.856-2.198,1.194-3.371c0.55-1.87,0.93-3.741,1.141-5.58c0.042-0.275,0.074-0.539,0.095-0.803
			c0-0.254-0.011-0.497-0.021-0.75c0.011-0.053,0.011-0.106,0-0.169c0.021-0.243,0.021-0.507,0.021-0.782
			c0-3.033-0.328-5.706-0.972-8.052c0,0,0-0.011-0.011-0.032c-0.285-1.078-0.645-2.092-1.046-3.033
			c-0.729-1.659-1.638-3.128-2.726-4.428c-0.011-0.011-0.011-0.011-0.011-0.021c-9.859-11.783-33.71-9.415-59.653-9.415v18.229
			l-35.316-18.06V36.278c0-0.402,0.032-0.793,0.085-1.184c0.338-2.357,1.691-4.481,3.709-5.801
			c3.921-2.568,11.064-6.182,22.413-8.359c6.013-0.919,13.378-1.596,22.382-1.839c2.135-0.053,4.343-0.085,6.657-0.095h0.634
			c5.495,0,10.99,0.243,16.464,0.761c5.749,0.55,11.613,1.395,17.404,2.674c5.273,4.491,9.658,10.187,12.808,17.362
			C196.506,90.89,165.565,109.33,158.696,112.679z" fill="url(#SVGID_12_)"></path>
		<linearGradient id="SVGID_13_" gradientUnits="userSpaceOnUse" x1="165.2585" y1="72.6937" x2="165.2585" y2="72.6937">
			<stop offset="0" style="" stop-color="#87004A"></stop>
			<stop offset="0.4606" style="" stop-color="#EE2651" stop-opacity="0"></stop>
			<stop offset="1" style="" stop-color="#FFC74E" stop-opacity="0"></stop>
		</linearGradient>
		<path style="" d="M165.258,72.694" fill="url(#SVGID_13_)"></path>
		<linearGradient id="SVGID_14_" gradientUnits="userSpaceOnUse" x1="123.3756" y1="120.1865" x2="123.7213" y2="119.8282">
			<stop offset="0" style="" stop-color="#87004A"></stop>
			<stop offset="0.4606" style="" stop-color="#EE2651" stop-opacity="0"></stop>
			<stop offset="1" style="" stop-color="#FFC74E" stop-opacity="0"></stop>
		</linearGradient>
		<path style="" d="M124.289,120.594c-0.528-0.359-1.046-0.729-1.553-1.099
			c0.021,0.011,0.042,0.021,0.063,0.032C123.792,120.013,124.236,120.351,124.289,120.594z" fill="url(#SVGID_14_)"></path>
		<linearGradient id="SVGID_15_" gradientUnits="userSpaceOnUse" x1="151.9754" y1="120.5943" x2="151.9754" y2="120.5943">
			<stop offset="0" style="" stop-color="#87004A"></stop>
			<stop offset="0.4606" style="" stop-color="#EE2651" stop-opacity="0"></stop>
			<stop offset="1" style="" stop-color="#FFC74E" stop-opacity="0"></stop>
		</linearGradient>
		<path style="" d="M151.975,120.594" fill="url(#SVGID_15_)"></path>
		<linearGradient id="SVGID_16_" gradientUnits="userSpaceOnUse" x1="107.086" y1="98.3792" x2="106.741" y2="99.1699">
			<stop offset="0" style="" stop-color="#F8B6AF"></stop>
			<stop offset="0.3226" style="" stop-color="#EE5B9B"></stop>
			<stop offset="0.6989" style="" stop-color="#BB1B8A"></stop>
			<stop offset="1" style="" stop-color="#80256F"></stop>
		</linearGradient>
		<path style="" d="M106.885,98.414c0.011,0.264,0.032,0.518,0.063,0.771
			c-0.074-0.486-0.095-0.761-0.095-0.761L106.885,98.414z" fill="url(#SVGID_16_)"></path>
		<linearGradient id="SVGID_17_" gradientUnits="userSpaceOnUse" x1="130.359" y1="144.9433" x2="221.8227" y2="20.8334">
			<stop offset="0" style="" stop-color="#87004A"></stop>
			<stop offset="0.4606" style="" stop-color="#EE2651" stop-opacity="0"></stop>
			<stop offset="1" style="" stop-color="#FFC74E" stop-opacity="0"></stop>
		</linearGradient>
		<path style="" d="M210.381,92.348c-0.37,1.395-0.793,2.779-1.279,4.132
			c-0.793,2.272-1.733,4.491-2.811,6.636c-0.328,0.655-0.666,1.3-1.025,1.934c-0.011,0.021-0.021,0.042-0.032,0.063
			c-2.177,3.91-4.84,7.545-7.989,10.789c-1.205,1.247-2.483,2.43-3.836,3.551c-1.152,0.962-2.917,2.43-4.924,3.931
			c-1.807,1.353-3.825,2.726-5.78,3.773c-0.021,0.011-0.042,0.021-0.063,0.032c-0.666,0.349-1.31,0.655-1.955,0.919
			c-0.729,0.296-1.437,0.528-2.113,0.666c-0.655,0.137-1.279,0.19-1.849,0.148c0,0,0.264,0.063,0.75,0.222
			c-43.009,1.31-59.843-11.064-66.416-20.501c1.3,1.522,2.885,2.8,4.65,3.783c0,0,0.042,0.021,0.137,0.074
			c0.645,0.359,1.31,0.666,2.008,0.93c1.923,0.75,4.005,1.152,6.192,1.152c7.281,0,28.542-0.158,31.818-0.877
			c6.14-1.331,10.62-7.196,12.977-12.649c0.465-1.078,0.856-2.198,1.194-3.371c0.55-1.87,0.93-3.741,1.141-5.58
			c0.042-0.275,0.074-0.539,0.095-0.803c0-0.254-0.011-0.497-0.021-0.75c0.011-0.053,0.011-0.106,0-0.169
			c0.021-0.243,0.021-0.507,0.021-0.782c0-3.033-0.328-5.706-0.972-8.052c0,0,0-0.011-0.011-0.032
			c-0.285-1.078-0.645-2.092-1.046-3.033c-0.328-0.729-0.676-1.427-1.078-2.092c-0.486-0.835-1.046-1.606-1.648-2.335
			c-0.137-0.159-0.264-0.317-0.412-0.465l39.089-23.544C212.59,62.622,214.164,78.219,210.381,92.348z" fill="url(#SVGID_17_)"></path>
		<linearGradient id="SVGID_18_" gradientUnits="userSpaceOnUse" x1="252.392" y1="163.5708" x2="-72.9918" y2="-55.5102">
			<stop offset="0" style="" stop-color="#F8B6AF"></stop>
			<stop offset="0.3226" style="" stop-color="#EE5B9B" stop-opacity="0.5"></stop>
			<stop offset="0.6989" style="" stop-color="#BB1B8A" stop-opacity="0.4"></stop>
			<stop offset="1" style="" stop-color="#80256F" stop-opacity="0"></stop>
		</linearGradient>
		<path style="" d="M187.202,133.656c-4.47-2.726-8.2-4.037-9.722-4.512
			c-0.486-0.159-0.75-0.222-0.75-0.222c0.571,0.042,1.194-0.011,1.849-0.148c0.676-0.137,1.384-0.37,2.113-0.666
			c0.645-0.264,1.289-0.571,1.955-0.919c0.021-0.011,0.042-0.021,0.063-0.032c1.955-1.046,3.973-2.42,5.78-3.773
			c2.008-1.501,3.773-2.969,4.924-3.931c1.353-1.12,2.631-2.304,3.836-3.551c3.149-3.244,5.812-6.879,7.989-10.789
			c0.011-0.021,0.021-0.042,0.032-0.063c0.359-0.634,0.697-1.279,1.025-1.934c1.078-2.145,2.018-4.364,2.811-6.636
			c0.486-1.353,0.909-2.737,1.279-4.132c3.783-14.129,2.209-29.726-5.189-42.301c-0.592-1.036-1.236-2.05-1.923-3.043
			c-2.589-3.762-5.749-7.186-9.489-10.155c-0.476-0.38-0.962-0.75-1.448-1.11c0,0,0-0.011-0.011-0.011
			c-9.077-6.753-19.909-10.832-31.036-13.294c-5.791-1.279-11.656-2.124-17.404-2.674C138.412,19.243,132.917,19,127.422,19h-1.479
			c5.157,0.032,10.314,0.275,15.449,0.761c5.749,0.55,11.613,1.395,17.404,2.674c11.127,2.462,21.959,6.541,31.036,13.294
			c0.011,0,0.011,0.011,0.011,0.011c0.486,0.359,0.972,0.729,1.448,1.11c3.741,2.969,6.9,6.393,9.49,10.155
			c0.687,0.993,1.331,2.008,1.923,3.043c7.397,12.575,8.972,28.173,5.189,42.301c-0.37,1.395-0.793,2.779-1.279,4.132
			c-0.793,2.272-1.733,4.491-2.811,6.636c-0.328,0.655-0.666,1.3-1.025,1.934c-0.011,0.021-0.021,0.042-0.032,0.063
			c-2.177,3.91-4.84,7.545-7.989,10.789c-1.205,1.247-2.483,2.43-3.836,3.551c-1.152,0.962-2.917,2.43-4.924,3.931
			c-1.807,1.353-3.825,2.726-5.78,3.773c-0.021,0.011-0.042,0.021-0.063,0.032c-0.666,0.349-1.31,0.655-1.955,0.919
			c-0.729,0.296-1.437,0.528-2.113,0.666c-0.655,0.137-1.279,0.19-1.849,0.148c0,0,0.264,0.063,0.75,0.222
			c1.522,0.476,5.252,1.786,9.722,4.512c7.968,4.861,18.292,14.245,22.72,31.417c2.589,10.028,3.16,22.72,0.085,38.729
			c-0.877,4.586-2.061,9.458-3.593,14.615c0.581,0.159,1.162,0.349,1.754,0.55c0.169,0.053,0.349,0.116,0.518,0.18l0.011-0.011
			c0-0.011,0-0.021,0.011-0.042c0.011-0.053,0.032-0.095,0.042-0.148c1.606-5.358,2.843-10.398,3.751-15.143
			c3.075-16.009,2.504-28.701-0.085-38.729C205.494,147.9,195.17,138.517,187.202,133.656z" opacity="0.7" fill="url(#SVGID_18_)"></path>
		<g>
			<linearGradient id="SVGID_19_" gradientUnits="userSpaceOnUse" x1="162.9884" y1="169.3137" x2="162.8189" y2="169.4286">
				<stop offset="0" style="" stop-color="#FFFFFF"></stop>
				<stop offset="0.091" style="" stop-color="#FDFFEA" stop-opacity="0.909"></stop>
				<stop offset="0.2743" style="" stop-color="#FBFFC5" stop-opacity="0.7257"></stop>
				<stop offset="0.4585" style="" stop-color="#F9FFA9" stop-opacity="0.5415"></stop>
				<stop offset="0.6414" style="" stop-color="#F7FF94" stop-opacity="0.3586"></stop>
				<stop offset="0.8226" style="" stop-color="#F6FF88" stop-opacity="0.1774"></stop>
				<stop offset="1" style="" stop-color="#F6FF84" stop-opacity="0"></stop>
			</linearGradient>
			<path style="" d="M162.966,169.299c0,0.032-0.011,0.053-0.021,0.074h-0.011
				C162.945,169.352,162.955,169.32,162.966,169.299z" opacity="0.3" fill="url(#SVGID_19_)"></path>
			<linearGradient id="SVGID_20_" gradientUnits="userSpaceOnUse" x1="189.9844" y1="141.6198" x2="95.8142" y2="205.464">
				<stop offset="0" style="" stop-color="#FFFFFF"></stop>
				<stop offset="0.091" style="" stop-color="#FDFFEA" stop-opacity="0.909"></stop>
				<stop offset="0.2743" style="" stop-color="#FBFFC5" stop-opacity="0.7257"></stop>
				<stop offset="0.4585" style="" stop-color="#F9FFA9" stop-opacity="0.5415"></stop>
				<stop offset="0.6414" style="" stop-color="#F7FF94" stop-opacity="0.3586"></stop>
				<stop offset="0.8226" style="" stop-color="#F6FF88" stop-opacity="0.1774"></stop>
				<stop offset="1" style="" stop-color="#F6FF84" stop-opacity="0"></stop>
			</linearGradient>
			<path style="" d="M188.824,156.798c0,11.709-9.5,21.209-21.219,21.209
				c-2.113,0-4.164-0.317-6.087-0.898c0.074-0.148,0.137-0.296,0.211-0.444c0.444-0.93,0.845-1.892,1.194-2.874
				c0.338-0.93,0.634-1.881,0.898-2.864c0.106-0.391,0.201-0.782,0.285-1.184c0.93-3.878,1.3-8.105,1.173-12.66
				c0-0.011,0-0.011,0-0.011v-0.116c0,0-0.011,0-0.021-0.011c-0.021-0.011-0.053-0.021-0.074-0.021
				c-0.645-0.222-1.279-0.433-1.913-0.623c-0.211-0.063-0.412-0.116-0.613-0.18c-2.811-0.824-5.558-1.395-8.243-1.701
				c-1.427-0.169-2.843-0.254-4.238-0.264v0.042c-0.306-0.011-0.613-0.021-0.93-0.032h-0.264c-0.824-0.021-1.638-0.011-2.441,0.032
				c1.279-10.493,10.219-18.62,21.061-18.62C179.324,135.579,188.824,145.079,188.824,156.798z" opacity="0.3" fill="url(#SVGID_20_)"></path>
			<linearGradient id="SVGID_21_" gradientUnits="userSpaceOnUse" x1="186.1877" y1="144.2037" x2="108.5178" y2="196.8612">
				<stop offset="0" style="" stop-color="#FFFFFF"></stop>
				<stop offset="0.091" style="" stop-color="#FDFFEA" stop-opacity="0.909"></stop>
				<stop offset="0.2743" style="" stop-color="#FBFFC5" stop-opacity="0.7257"></stop>
				<stop offset="0.4585" style="" stop-color="#F9FFA9" stop-opacity="0.5415"></stop>
				<stop offset="0.6414" style="" stop-color="#F7FF94" stop-opacity="0.3586"></stop>
				<stop offset="0.8226" style="" stop-color="#F6FF88" stop-opacity="0.1774"></stop>
				<stop offset="1" style="" stop-color="#F6FF84" stop-opacity="0"></stop>
			</linearGradient>
			<path style="" d="M185.252,156.798c0,9.733-7.894,17.626-17.637,17.626
				c-1.617,0-3.191-0.222-4.692-0.634c0.338-0.93,0.634-1.881,0.898-2.864c0.106-0.391,0.201-0.782,0.285-1.184
				c0.93-3.878,1.3-8.105,1.173-12.66c0-0.011,0-0.011,0-0.011v-0.116c0,0-0.011,0-0.021-0.011
				c-0.021-0.011-0.053-0.021-0.074-0.021c-0.645-0.222-1.279-0.433-1.913-0.623c-0.211-0.063-0.412-0.116-0.613-0.18
				c-2.811-0.824-5.558-1.395-8.243-1.701c-1.427-0.169-2.843-0.254-4.238-0.264c1.268-8.486,8.602-14.995,17.436-14.995
				C177.359,139.161,185.252,147.055,185.252,156.798z" opacity="0.3" fill="url(#SVGID_21_)"></path>
			<linearGradient id="SVGID_22_" gradientUnits="userSpaceOnUse" x1="162.9884" y1="169.3137" x2="162.8189" y2="169.4286">
				<stop offset="0" style="" stop-color="#FFFFFF"></stop>
				<stop offset="0.091" style="" stop-color="#FDFFEA" stop-opacity="0.909"></stop>
				<stop offset="0.2743" style="" stop-color="#FBFFC5" stop-opacity="0.7257"></stop>
				<stop offset="0.4585" style="" stop-color="#F9FFA9" stop-opacity="0.5415"></stop>
				<stop offset="0.6414" style="" stop-color="#F7FF94" stop-opacity="0.3586"></stop>
				<stop offset="0.8226" style="" stop-color="#F6FF88" stop-opacity="0.1774"></stop>
				<stop offset="1" style="" stop-color="#F6FF84" stop-opacity="0"></stop>
			</linearGradient>
			<path style="" d="M162.934,169.373c0.011-0.021,0.021-0.053,0.032-0.074
				c0,0.032-0.011,0.053-0.021,0.074H162.934z" opacity="0.3" fill="url(#SVGID_22_)"></path>
			<linearGradient id="SVGID_23_" gradientUnits="userSpaceOnUse" x1="181.7737" y1="147.2083" x2="122.7105" y2="187.2511">
				<stop offset="0" style="" stop-color="#FFFFFF"></stop>
				<stop offset="0.091" style="" stop-color="#FDFFEA" stop-opacity="0.909"></stop>
				<stop offset="0.2743" style="" stop-color="#FBFFC5" stop-opacity="0.7257"></stop>
				<stop offset="0.4585" style="" stop-color="#F9FFA9" stop-opacity="0.5415"></stop>
				<stop offset="0.6414" style="" stop-color="#F7FF94" stop-opacity="0.3586"></stop>
				<stop offset="0.8226" style="" stop-color="#F6FF88" stop-opacity="0.1774"></stop>
				<stop offset="1" style="" stop-color="#F6FF84" stop-opacity="0"></stop>
			</linearGradient>
			<path style="" d="M181.068,156.798c0,7.408-6.013,13.421-13.431,13.421
				c-1.215,0-2.399-0.159-3.529-0.476c0.93-3.878,1.3-8.105,1.173-12.66c0-0.011,0-0.011,0-0.011v-0.116c0,0-0.011,0-0.021-0.011
				c-0.021-0.011-0.053-0.021-0.074-0.021v-0.032c0,0-0.011,0-0.021,0c-0.634-0.222-1.268-0.423-1.892-0.592
				c-0.211-0.063-0.412-0.116-0.613-0.18c-2.811-0.824-5.558-1.395-8.243-1.701c1.12-6.288,6.615-11.053,13.22-11.053
				C175.055,143.367,181.068,149.38,181.068,156.798z" opacity="0.3" fill="url(#SVGID_23_)"></path>
		</g>
		<g>
			<linearGradient id="SVGID_24_" gradientUnits="userSpaceOnUse" x1="148.3738" y1="145.6317" x2="53.7625" y2="266.8637">
				<stop offset="0" style="" stop-color="#FFFFFF"></stop>
				<stop offset="0.091" style="" stop-color="#FDFFEA" stop-opacity="0.909"></stop>
				<stop offset="0.2743" style="" stop-color="#FBFFC5" stop-opacity="0.7257"></stop>
				<stop offset="0.4585" style="" stop-color="#F9FFA9" stop-opacity="0.5415"></stop>
				<stop offset="0.6414" style="" stop-color="#F7FF94" stop-opacity="0.3586"></stop>
				<stop offset="0.8226" style="" stop-color="#F6FF88" stop-opacity="0.1774"></stop>
				<stop offset="1" style="" stop-color="#F6FF84" stop-opacity="0"></stop>
			</linearGradient>
			<path style="" d="M69.773,241.463c0.412-3.688,1.469-7.471,2.991-11.233
				c2.082-4.449,4.544-9.13,7.471-13.864c3.117-4.734,6.594-9.215,9.976-13.188c-6.816,2.092-13.843,4.766-21.05,8.105
				c-3.847,8.792-5.77,18.715-5.77,27.686c0,3.286,0.275,6.784,1.321,9.912l0.011,0.032l1.511,3.952l0.011,0.032
				c5.294,11.149,16.147,13.135,16.147,13.135C71.875,259.534,68.737,250.784,69.773,241.463z" opacity="0.3" fill="url(#SVGID_24_)"></path>
			<linearGradient id="SVGID_25_" gradientUnits="userSpaceOnUse" x1="194.5215" y1="181.646" x2="99.9101" y2="302.8781">
				<stop offset="0.1414" style="" stop-color="#FD86B2"></stop>
				<stop offset="0.3018" style="" stop-color="#D960C8" stop-opacity="0.7652"></stop>
				<stop offset="0.5425" style="" stop-color="#A72CE6" stop-opacity="0.4128"></stop>
				<stop offset="0.7243" style="" stop-color="#890CF8" stop-opacity="0.1467"></stop>
				<stop offset="0.8245" style="" stop-color="#7D00FF" stop-opacity="0"></stop>
			</linearGradient>
			<path style="" d="M202.509,248.174c-2.135-0.856-4.502-1.437-6.911-1.722
				c-2.42-0.254-4.85-0.201-7.186,0.127c-1.12,0.158-2.219,0.402-3.276,0.687c-1.522-0.983-3.529-2.124-5.918-3.17
				c-3.498-1.532-7.809-2.874-12.628-3.202c-3.17-0.19-6.562,0.032-10.092,0.93c-0.042,0.011-0.074,0.021-0.116,0.032
				c-1.532,0.518-3.001,1.162-4.428,1.913c0,0,0.011-0.032,0.021-0.095c0.37-1.511,0.845-3.022,1.469-4.502
				c0.645-1.522,1.416-3.022,2.304-4.491c0.063-0.095,0.116-0.19,0.18-0.285c0.306-0.486,0.613-0.962,0.941-1.437
				c1.395-1.987,3.012-3.889,4.84-5.632c9.384-8.993,24.358-14.192,41.91-9.003c0.845,0.243,1.701,0.518,2.568,0.824l0.011-0.011
				c0-0.011,0-0.021,0.011-0.042c0.011-0.053,0.032-0.095,0.042-0.148c0,0-27.211-21.061-70.072-22.223
				c-1.575,0.518-3.223,1.004-4.946,1.448c0.127,0.211,0.254,0.423,0.359,0.645c0.095,0.169,0.169,0.328,0.254,0.497
				c0.063,0.148,0.116,0.285,0.159,0.423c0.095,0.201,0.169,0.412,0.232,0.602c0.074,0.211,0.137,0.423,0.18,0.634
				c0.053,0.211,0.095,0.423,0.137,0.624c0.021,0.063,0.021,0.106,0.032,0.169c0.032,0.254,0.053,0.507,0.074,0.75
				c0.032,0.243,0.032,0.476,0.032,0.719c0,0.275-0.011,0.55-0.042,0.824c0,0.116-0.021,0.243-0.032,0.38
				c-0.011,0.18-0.042,0.359-0.084,0.549c-0.011,0.053-0.011,0.106-0.021,0.148c-0.011,0.063-0.021,0.116-0.042,0.159
				c-0.042,0.222-0.085,0.433-0.148,0.634c-0.021,0.127-0.063,0.264-0.106,0.38c-0.011,0.042-0.011,0.074-0.021,0.106
				c-0.169,0.507-0.359,1.014-0.571,1.511c-0.084,0.169-0.148,0.328-0.243,0.497c-0.085,0.18-0.18,0.359-0.264,0.528
				c0,0.011,0,0.021-0.011,0.032c-0.042,0.106-0.095,0.18-0.158,0.264c-0.042,0.085-0.085,0.169-0.127,0.243
				c-0.106,0.169-0.19,0.317-0.296,0.465c-0.063,0.127-0.148,0.243-0.232,0.37c-0.085,0.137-0.19,0.285-0.285,0.433
				c-0.148,0.211-0.306,0.433-0.476,0.634c-0.032,0.053-0.074,0.106-0.116,0.158c-0.201,0.264-0.402,0.518-0.613,0.761
				c-0.032,0.053-0.063,0.095-0.095,0.127c-0.063,0.063-0.137,0.148-0.19,0.222c-0.063,0.074-0.148,0.159-0.211,0.233
				c-0.053,0.053-0.095,0.095-0.148,0.148c-0.359,0.402-0.74,0.793-1.141,1.173c-2.705,2.631-5.854,4.565-8.126,5.273
				c0.856-2.092,2.209-5.664,2.071-9.532c-0.063-2.145-0.602-4.385-1.934-6.52c0,0-5.59,2.251-13.251,6.52
				c-1.215,0.676-2.483,1.416-3.783,2.187c-3.593,2.293-7.418,5.083-11.127,8.359c-1.437,1.268-2.843,2.589-4.216,4.005
				c-2.039,2.103-3.994,4.375-5.791,6.805c-1.818,2.452-3.466,5.072-4.893,7.862c0,0,0.053,0.011,0.169,0.032
				c0.465,0.085,1.881,0.402,3.519,1.215c1.997,1.014,4.333,2.79,5.643,5.875c0.222-0.095,0.454-0.201,0.676-0.306
				c3.614-1.553,7.651-2.748,12.068-3.286c2.705-0.338,5.548-0.444,8.517-0.254c4.005,0.264,8.232,1.067,12.649,2.547
				c0.983,0.328,1.987,0.708,3.012,1.099c-2.124,2.061-3.498,4.248-4.343,5.939c-0.888,1.733-1.205,2.948-1.205,2.948
				c-11.878-3.477-25.911,0.232-25.911,0.232c19.285,0,29.927,7.006,29.927,7.006c0.719-3.128,1.712-5.823,2.895-8.137
				c6.436-12.712,18.303-14.15,18.303-14.15c-9.394-0.719-15.439,2.272-19.243,5.78c0.137-0.951,0.328-1.881,0.571-2.769
				c0.37-1.331,0.835-2.589,1.416-3.773c0.941-1.976,2.145-3.741,3.53-5.252c4.512-4.893,11.106-7.302,17.996-6.531
				c2.357,0.264,4.766,0.898,7.133,1.944c0.042,0.021,0.063,0.032,0.063,0.032c-0.391,0.845-0.719,1.722-0.993,2.61
				c-0.75,2.441-1.067,4.967-1.173,7.196c-0.095,1.976-0.021,3.72,0.074,4.967c-2.177,1.205-4.195,2.674-6.013,4.322
				c-3.043,2.811-5.643,6.14-7.133,9.976c0,0,15.354-15.069,36.521-13.23c3.265,0.275,6.668,0.962,10.176,2.166
				c-1.152,0.338-2.24,0.74-3.265,1.205c-0.011,0-0.011,0-0.011,0c-1.701,0.771-3.191,1.701-4.417,2.737
				c-2.652,2.261-4.174,4.967-4.238,7.693c1.87-2.219,4.269-4.164,7.144-5.717c1.944-1.046,4.121-1.902,6.457-2.473
				c1.11-0.285,2.261-0.507,3.445-0.655c1.818-0.222,3.688-0.275,5.58-0.169c1.881,0.116,3.773,0.444,5.632,0.909
				c3.709,0.983,7.196,2.695,10.356,5.019C210.022,252.771,206.757,249.928,202.509,248.174z" opacity="0.4" fill="url(#SVGID_25_)"></path>
		</g>
	</g>
	<linearGradient id="SVGID_26_" gradientUnits="userSpaceOnUse" x1="102.3919" y1="119.0839" x2="92.1818" y2="189.8963">
		<stop offset="0.1414" style="" stop-color="#FD86B2"></stop>
		<stop offset="0.3018" style="" stop-color="#D960C8" stop-opacity="0.7652"></stop>
		<stop offset="0.5425" style="" stop-color="#A72CE6" stop-opacity="0.4128"></stop>
		<stop offset="0.7243" style="" stop-color="#890CF8" stop-opacity="0.1467"></stop>
		<stop offset="0.8245" style="" stop-color="#7D00FF" stop-opacity="0"></stop>
	</linearGradient>
	<path style="" d="M125.002,164.672c-2.347,2.278-4.605,4.948-6.766,8.037
		c-0.9,1.291-1.799,2.65-2.699,4.107c-0.538-0.626-1.095-1.134-1.701-1.564c-0.235-0.176-0.479-0.342-0.733-0.489
		c-2.836-1.662-6.209-1.623-9.465-0.684c-0.753,0.205-1.506,0.479-2.239,0.782c-0.323,0.127-0.665,0.274-0.968,0.43
		c-3.94,1.828-7.353,4.684-8.917,6.913l0.215-0.068h0.039c0.166-0.029,0.391-0.029,0.587-0.029c0.215,0.01,0.391,0.01,0.469,0.01
		c0.557-0.02,1.134-0.049,1.721-0.049c1.261-0.01,2.562,0.098,3.862,0.313c3.041,0.508,5.798,1.799,8.086,4.116
		c-0.645,0.518-1.242,1.046-1.868,1.564c-2.777,2.581-8.448,8.067-14.412,15.116c-1.115,1.31-2.239,2.679-3.364,4.097l-12.408-5.505
		c1.105-1.594,2.308-3.109,3.588-4.517c1.027-1.134,2.924-3.559,4.478-4.136c-1.027,0.323-5.603,1.838-10.971,5.075v-67.515
		C105.437,133.051,119.321,150.377,125.002,164.672z" opacity="0.4" fill="url(#SVGID_26_)"></path>
	<linearGradient id="SVGID_27_" gradientUnits="userSpaceOnUse" x1="117.6304" y1="128.494" x2="109.2304" y2="186.7517">
		<stop offset="0.1414" style="" stop-color="#FD86B2"></stop>
		<stop offset="0.3018" style="" stop-color="#D960C8" stop-opacity="0.7652"></stop>
		<stop offset="0.5425" style="" stop-color="#A72CE6" stop-opacity="0.4128"></stop>
		<stop offset="0.7243" style="" stop-color="#890CF8" stop-opacity="0.1467"></stop>
		<stop offset="0.8245" style="" stop-color="#7D00FF" stop-opacity="0"></stop>
	</linearGradient>
	<path style="" d="M141.497,155.158c-5.886,1.457-11.401,4.566-16.495,9.514
		c-2.347,2.278-4.605,4.948-6.766,8.037c-0.9,1.291-1.799,2.65-2.699,4.107c-0.538-0.626-1.095-1.134-1.701-1.564
		c-0.235-0.176-0.479-0.342-0.733-0.489c-2.836-1.662-6.209-1.623-9.465-0.684c-0.753,0.205-1.506,0.479-2.239,0.782
		c-0.323,0.127-0.665,0.274-0.968,0.43c-3.94,1.828-7.353,4.684-8.917,6.913l0.215-0.068h0.039c0.166-0.029,0.391-0.029,0.587-0.029
		c0.215,0.01,0.391,0.01,0.469,0.01c0.557-0.02,1.134-0.049,1.721-0.049c1.261-0.01,2.562,0.098,3.862,0.313
		c3.041,0.508,5.798,1.799,8.086,4.116c-0.645,0.518-1.242,1.046-1.868,1.564c-2.259,2.102-6.434,6.131-11.127,11.352
		c-6.688-6.082-10.892-14.852-10.892-24.611c0-18.363,14.882-33.244,33.244-33.244c10.912,0,20.592,5.251,26.664,13.376
		c-0.108,0.02-0.225,0.039-0.332,0.068C141.957,155.051,141.722,155.109,141.497,155.158z" opacity="0.4" fill="url(#SVGID_27_)"></path>
	<linearGradient id="SVGID_28_" gradientUnits="userSpaceOnUse" x1="191.4556" y1="171.2823" x2="173.4812" y2="225.9544">
		<stop offset="0.1414" style="" stop-color="#FD86B2"></stop>
		<stop offset="0.3018" style="" stop-color="#D960C8" stop-opacity="0.7652"></stop>
		<stop offset="0.5425" style="" stop-color="#A72CE6" stop-opacity="0.4128"></stop>
		<stop offset="0.7243" style="" stop-color="#890CF8" stop-opacity="0.1467"></stop>
		<stop offset="0.8245" style="" stop-color="#7D00FF" stop-opacity="0"></stop>
	</linearGradient>
	<path style="" d="M211.799,190.671c-0.323,4.107-0.909,8.477-1.799,13.132
		c-0.909,4.742-2.141,9.788-3.755,15.146c-0.01,0.049-0.029,0.088-0.039,0.147c-0.01,0.02-0.01,0.029-0.01,0.039l-0.01,0.01
		c-0.87-0.303-1.721-0.577-2.572-0.821c-17.551-5.192-32.521,0.01-41.907,9.005c-1.369,1.3-2.611,2.689-3.745,4.136
		c-3.51-4.136-8.986-4.84-13.679-4.478c1.32-23.652,20.915-42.406,44.899-42.406C197.426,184.579,205.15,186.799,211.799,190.671z" opacity="0.4" fill="url(#SVGID_28_)"></path>
</g>
</svg></g> <!----></g>  <!----></svg>